# xmcd
#
# Track frame offsets:
#	150
#	22602
#	40787
#	58635
#	75793
#	97991
#	115337
#	139714
#	160344
#	178293
#	191208
#	209087
#
# Disc length: 3035 seconds
# Revision: 0
# Processed by: cddbd v1.5.2PL0 Copyright (c) Steve Scherf et al.
# Submitted via: dBpowerAMP V12.0
#
DISCID=9b0bd90c
DTITLE=Buchanan -  Suit Of Lights
DYEAR=2010
DGENRE=Country
TTITLE0=She Rides With The Wind
TTITLE1=Girl From Your Hometown
TTITLE2=Joe Louis
TTITLE3=House On The Hill
TTITLE4=Please Take My Broken Heart
TTITLE5=The Star That Fell To Ground
TTITLE6=Addiction, Fire And The Grave
TTITLE7=Jim Todd's Blues
TTITLE8=East Of Eden
TTITLE9=I Know My Way Around This Sky
TTITLE10=Cowboy Singers: Rock'n'Roll
TTITLE11=The Longest Night
EXTD=
EXTT0=
EXTT1=
EXTT2=
EXTT3=
EXTT4=
EXTT5=
EXTT6=
EXTT7=
EXTT8=
EXTT9=
EXTT10=
EXTT11=
PLAYORDER=
